<svg width="76" height="14" viewBox="0 0 76 14" fill="none" xmlns="http://www.w3.org/2000/svg">
<g id="ratings">
<path id="star" d="M6.66345 0.472097L4.84133 3.98115L0.764578 4.54567C0.0334979 4.64639 -0.259492 5.50245 0.27068 5.99276L3.22011 8.72261L2.52252 12.5789C2.39695 13.2759 3.16989 13.798 3.81726 13.472L7.46429 11.6512L11.1113 13.472C11.7587 13.7954 12.5316 13.2759 12.4061 12.5789L11.7085 8.72261L14.6579 5.99276C15.1881 5.50245 14.8951 4.64639 14.164 4.54567L10.0872 3.98115L8.26513 0.472097C7.93865 -0.153384 6.99271 -0.161335 6.66345 0.472097Z" fill="#3187ED"/>
<path id="star_2" d="M27.0206 0.472097L25.1984 3.98115L21.1217 4.54567C20.3906 4.64639 20.0976 5.50245 20.6278 5.99276L23.5772 8.72261L22.8796 12.5789C22.7541 13.2759 23.527 13.798 24.1744 13.472L27.8214 11.6512L31.4684 13.472C32.1158 13.7954 32.8887 13.2759 32.7632 12.5789L32.0656 8.72261L35.015 5.99276C35.5452 5.50245 35.2522 4.64639 34.5211 4.54567L30.4444 3.98115L28.6222 0.472097C28.2958 -0.153384 27.3498 -0.161335 27.0206 0.472097Z" fill="#3187ED"/>
<path id="star_3" d="M47.3777 0.472097L45.5556 3.98115L41.4789 4.54567C40.7478 4.64639 40.4548 5.50245 40.985 5.99276L43.9344 8.72261L43.2368 12.5789C43.1112 13.2759 43.8842 13.798 44.5316 13.472L48.1786 11.6512L51.8256 13.472C52.473 13.7954 53.2459 13.2759 53.1203 12.5789L52.4228 8.72261L55.3722 5.99276C55.9024 5.50245 55.6094 4.64639 54.8783 4.54567L50.8015 3.98115L48.9794 0.472097C48.6529 -0.153384 47.707 -0.161335 47.3777 0.472097Z" fill="#3187ED"/>
<path id="star_4" d="M67.7349 0.472097L65.9127 3.98115L61.836 4.54567C61.1049 4.64639 60.8119 5.50245 61.3421 5.99276L64.2915 8.72261L63.5939 12.5789C63.4684 13.2759 64.2413 13.798 64.8887 13.472L68.5357 11.6512L72.1827 13.472C72.8301 13.7954 73.603 13.2759 73.4775 12.5789L72.7799 8.72261L75.7293 5.99276C76.2595 5.50245 75.9665 4.64639 75.2354 4.54567L71.1587 3.98115L69.3365 0.472097C69.0101 -0.153384 68.0641 -0.161335 67.7349 0.472097Z" fill="#3187ED"/>
</g>
</svg>
